<?xml version="1.0" encoding="UTF-8" standalone="no"?>
<svg
   xmlns:dc="http://purl.org/dc/elements/1.1/"
   xmlns:cc="http://creativecommons.org/ns#"
   xmlns:rdf="http://www.w3.org/1999/02/22-rdf-syntax-ns#"
   xmlns:svg="http://www.w3.org/2000/svg"
   xmlns="http://www.w3.org/2000/svg"
   xmlns:sodipodi="http://sodipodi.sourceforge.net/DTD/sodipodi-0.dtd"
   xmlns:inkscape="http://www.inkscape.org/namespaces/inkscape"
   width="18.28389mm"
   height="18.283978mm"
   viewBox="0 0 18.28389 18.283978"
   version="1.1"
   id="svg352"
   inkscape:version="1.0.1 (3bc2e813f5, 2020-09-07)"
   sodipodi:docname="logo.svg">
  <defs
     id="defs346" />
  <sodipodi:namedview
     id="base"
     pagecolor="#ffffff"
     bordercolor="#666666"
     borderopacity="1.0"
     inkscape:pageopacity="0.0"
     inkscape:pageshadow="2"
     inkscape:zoom="2.8"
     inkscape:cx="-3.7271701"
     inkscape:cy="30.846681"
     inkscape:document-units="mm"
     inkscape:current-layer="layer1"
     inkscape:document-rotation="0"
     showgrid="false"
     inkscape:window-width="1267"
     inkscape:window-height="728"
     inkscape:window-x="52"
     inkscape:window-y="0"
     inkscape:window-maximized="0" />
  <metadata
     id="metadata349">
    <rdf:RDF>
      <cc:Work
         rdf:about="">
        <dc:format>image/svg+xml</dc:format>
        <dc:type
           rdf:resource="http://purl.org/dc/dcmitype/StillImage" />
        <dc:title />
      </cc:Work>
    </rdf:RDF>
  </metadata>
  <g
     inkscape:label="Layer 1"
     inkscape:groupmode="layer"
     id="layer1"
     transform="translate(-45.286626,-99.715153)">
    <path
       id="path3424-4"
       style="fill:#0c0a09;fill-rule:evenodd;stroke:none;stroke-width:1.30702;stroke-linecap:round;stroke-miterlimit:4;stroke-dasharray:none;paint-order:fill markers stroke;fill-opacity:1"
       d="m 54.428567,99.715153 a 9.1418931,9.1418931 0 0 0 -7.587541,4.043437 l 3.261761,2.56518 4.32578,-3.40202 4.325829,3.4014 3.26172,-2.56514 a 9.1418931,9.1418931 0 0 0 -7.587549,-4.042857 z m 0,4.834767 -3.2905,2.58793 1.15098,0.9052 2.13952,-1.68273 2.139529,1.68215 1.15098,-0.90525 z m -8.231361,0.33029 a 9.1418931,9.1418931 0 0 0 -0.53653,1.38899 l 2.2558,1.77385 1.15161,-0.9052 z m 16.46276,0 -2.8703,2.25764 1.151,0.90462 2.25581,-1.77385 a 9.1418931,9.1418931 0 0 0 -0.53651,-1.38841 z m 0.83205,2.78337 -1.51667,1.19294 1.51667,1.19295 a 9.1418931,9.1418931 0 0 0 0.0785,-1.19233 9.1418931,9.1418931 0 0 0 -0.0785,-1.19356 z m -18.12689,5.9e-4 a 9.1418931,9.1418931 0 0 0 -0.0785,1.19297 9.1418931,9.1418931 0 0 0 0.0785,1.19233 l 1.51667,-1.19295 z m 4.737661,0.28774 -1.150991,0.90523 1.150991,0.90521 1.151569,-0.90521 z m 8.652189,0 -1.15158,0.90523 1.151,0.90458 1.15099,-0.9052 z m -4.326409,0.0372 -1.104211,0.86865 1.104211,0.86803 1.104249,-0.86923 z m -6.511471,1.68214 -2.25582,1.77384 a 9.1418931,9.1418931 0 0 0 0.53593,1.38837 l 2.87088,-2.25759 z m 4.371951,0 -1.15098,0.9052 3.2905,2.58732 3.290509,-2.58732 -1.15098,-0.9052 -2.139529,1.68271 z m 8.651029,0 -1.15099,0.90462 2.87146,2.2582 a 9.1418931,9.1418931 0 0 0 0.53535,-1.38898 z m -10.836709,1.7187 -3.262341,2.56574 a 9.1418931,9.1418931 0 0 0 7.587541,4.04344 9.1418931,9.1418931 0 0 0 7.588159,-4.04344 l -3.26233,-2.56574 -4.325829,3.402 z" />
  </g>
</svg>
